PathFileType	4	(X/Y/Z)	/Users/mathieubourgeois/Desktop/Analyse/Traitement/Sujet_06/Transformed_Static_Sujet_06_Tpose.trc
DataRate	CameraRate	NumFrames	NumMarkers	Units	OrigDataRate	OrigDataStartFrame	OrigNumFrames
120.000000	120.000000	4	36	mm	120.000000	157	252
Frame#	Time	RFHD			RANE			STRN			LANI			LKNE			T10			RHUM			RWRB			C7			LFWT			LTOE			RTOE			LWRA			LBWT			RBWT			RFWT			LKNI			RKNI			RKNE			LANE			RANI			LHEE			RHEE			LHUM			LRAD			RRAD			RWRA			LWRB			LFHD			LBHD			RBHD			RSHO			LSHO			CLAV			LCAR			RCAR			
		X1	Y1	Z1	X2	Y2	Z2	X3	Y3	Z3	X4	Y4	Z4	X5	Y5	Z5	X6	Y6	Z6	X7	Y7	Z7	X8	Y8	Z8	X9	Y9	Z9	X10	Y10	Z10	X11	Y11	Z11	X12	Y12	Z12	X13	Y13	Z13	X14	Y14	Z14	X15	Y15	Z15	X16	Y16	Z16	X17	Y17	Z17	X18	Y18	Z18	X19	Y19	Z19	X20	Y20	Z20	X21	Y21	Z21	X22	Y22	Z22	X23	Y23	Z23	X24	Y24	Z24	X25	Y25	Z25	X26	Y26	Z26	X27	Y27	Z27	X28	Y28	Z28	X29	Y29	Z29	X30	Y30	Z30	X31	Y31	Z31	X32	Y32	Z32	X33	Y33	Z33	X34	Y34	Z34	X35	Y35	Z35	X36	Y36	Z36	

158	1.308333333333333	-881.9022216796875	1638.454223632812	322.7624511718748	-958.709228515625	75.48468017578126	216.3496093749999	-810.85986328125	1233.39990234375	358.953155517578	-763.769775390625	77.7304153442383	223.6739501953124	-673.3085327148438	481.6649169921875	237.6910400390624	-816.4758911132812	1211.362060546875	157.5678863525389	-1259.958374023438	1408.682006835938	196.3639831542966	-1484.630126953125	1482.046630859375	205.3442077636716	-814.9823608398438	1453.183471679688	202.0868682861326	-699.8646240234375	984.5497436523438	331.9105834960936	-697.4196166992188	37.48145294189455	392.4606323242186	-918.3776245117188	38.5569763183594	399.6267700195311	-118.939323425293	1344.314086914062	126.2044677734374	-760.1392822265625	1011.099609375	177.3738861083983	-866.8207397460938	1012.282165527344	184.2876129150389	-913.9730834960938	987.8837890625	340.9229125976561	-767.6353149414062	435.9132080078125	232.344268798828	-866.4617309570312	441.8361511230469	220.0412445068358	-961.2817993164062	492.4125061035156	231.690231323242	-683.3025512695312	69.61006927490236	202.3666381835937	-877.84375	83.53816986083986	226.900909423828	-724.4788208007812	52.01864242553712	154.3675689697265	-922.9161376953125	53.96062850952149	162.4110717773436	-367.8978271484375	1359.967651367188	155.7140350341795	-361.0181579589844	1315.81591796875	201.3229980468749	-1259.052490234375	1370.597412109375	250.4813079833982	-1497.776000976562	1426.517333984375	184.5968170166013	-123.2472610473633	1404.872924804688	124.0158920288085	-736.1446533203125	1642.32470703125	321.247131347656	-737.1171875	1579.196655273438	183.6884918212889	-865.802001953125	1580.907836914062	168.5502014160154	-953.4570922851562	1447.878784179688	235.1124572753904	-664.1292724609375	1434.862426757812	223.4098968505858	-808.4410400390625	1385.927978515625	320.379669189453	-36.1662063598633	1384.857421875	104.8653564453124	-1591.662719726562	1467.037475585938	163.7839508056638	
159	1.316666666666667	-881.850341796875	1638.454223632812	322.8551940917966	-958.7266235351562	75.49307250976564	216.3603210449218	-810.8258666992188	1233.39697265625	359.0365905761717	-763.760498046875	77.74105072021486	223.6730804443359	-673.2958984375	481.6705017089844	237.7538299560546	-816.4260864257812	1211.364624023438	157.6591491699217	-1259.906372070312	1408.6572265625	196.4281463623045	-1484.58740234375	1482.0400390625	205.4071197509763	-814.9251708984375	1453.194946289062	202.1826324462889	-699.8549194335938	984.53564453125	332.0119628906248	-697.4252319335938	37.47698974609377	392.4641113281249	-918.3703002929688	38.56240463256838	399.6292724609374	-118.9040756225586	1344.2724609375	126.2574920654296	-760.0928955078125	1011.098999023438	177.4701538085936	-866.7737426757812	1012.315368652344	184.4001159667967	-913.938720703125	987.8638916015625	341.0113830566405	-767.6224975585938	435.9063110351562	232.3687896728514	-866.4441528320312	441.8359680175781	220.038619995117	-961.2647094726562	492.4248046875	231.7182312011717	-683.3046875	69.61318206787111	202.3544921874999	-877.8470458984375	83.5273895263672	226.9164276123046	-724.4801635742188	52.02416610717774	154.3649444580077	-922.9119262695312	53.96415328979493	162.421905517578	-367.8458862304688	1359.95166015625	155.7842559814452	-360.9784545898438	1315.80078125	201.4269104003905	-1259.013305664062	1370.593994140625	250.5426025390623	-1497.733276367188	1426.51318359375	184.6266784667966	-123.2018966674805	1404.830810546875	124.0662384033202	-736.1091918945312	1642.342041015625	321.3437194824216	-737.0614013671875	1579.21630859375	183.7917175292967	-865.7538452148438	1580.923950195312	168.6532592773436	-953.403564453125	1447.874633789062	235.1857299804686	-664.074951171875	1434.846557617188	223.5015411376951	-808.3843383789062	1385.923583984375	320.458770751953	-36.14115142822267	1384.784057617188	104.8689041137694	-1591.614379882812	1467.032104492188	163.819885253906	
160	1.325	-881.795654296875	1638.445922851562	322.9565734863279	-958.72119140625	75.5022659301758	216.3639984130858	-810.7890625	1233.396728515625	359.1197814941405	-763.7687377929688	77.73323059082033	223.6519012451171	-673.266357421875	481.6651611328125	237.7781372070311	-816.3839721679688	1211.368408203125	157.7285003662107	-1259.868530273438	1408.6474609375	196.4918975830076	-1484.546630859375	1482.03662109375	205.4717254638669	-814.869384765625	1453.200561523438	202.2603149414061	-699.8348388671875	984.5225830078125	332.0946044921873	-697.4190063476562	37.48080062866213	392.4655761718749	-918.3786010742188	38.56871795654299	399.6341247558593	-118.8747940063477	1344.244995117188	126.2997207641601	-760.0505981445312	1011.109375	177.569854736328	-866.7307739257812	1012.317443847656	184.5149536132811	-913.91552734375	987.8551025390625	341.1014099121092	-767.593994140625	435.9185485839844	232.3794708251952	-866.4321899414062	441.8316040039062	220.0897369384764	-961.25439453125	492.4289855957031	231.7370300292967	-683.3055419921875	69.6256561279297	202.3328399658202	-877.8464965820312	83.53717041015626	226.9108886718749	-724.4700317382812	52.01990127563477	154.3748779296874	-922.9088745117188	53.97482681274415	162.4098205566405	-367.8081665039062	1359.935913085938	155.8525390624999	-360.9249877929688	1315.783447265625	201.5070648193358	-1258.97509765625	1370.569213867188	250.5829620361326	-1497.676513671875	1426.503173828125	184.6920928955076	-123.1547622680664	1404.804077148438	124.1160659790038	-736.0508422851562	1642.336181640625	321.4406738281248	-737.0070190429688	1579.22265625	183.8929595947264	-865.7075805664062	1580.93505859375	168.7533569335936	-953.3579711914062	1447.888549804688	235.2512817382811	-664.0199584960938	1434.852172851562	223.5897064208983	-808.3318481445312	1385.926513671875	320.5296630859373	-36.12560272216798	1384.72412109375	104.8716354370116	-1591.569946289062	1467.024658203125	163.8871002197263	
161	1.333333333333333	-881.73291015625	1638.459106445312	323.054748535156	-958.7074584960938	75.5094451904297	216.3554077148436	-810.7644653320312	1233.406005859375	359.2111206054686	-763.77685546875	77.73108673095705	223.6513061523437	-673.2477416992188	481.6769714355469	237.8185882568358	-816.337646484375	1211.3662109375	157.8106384277342	-1259.811645507812	1408.620239257812	196.5456695556638	-1484.498046875	1482.017456054688	205.533996582031	-814.8180541992188	1453.185302734375	202.3425445556639	-699.8258056640625	984.4989624023438	332.1933288574217	-697.4329833984375	37.48457336425783	392.4633178710936	-918.3861694335938	38.56533432006838	399.6336669921874	-118.8413772583008	1344.214599609375	126.3300323486327	-760.013916015625	1011.131530761719	177.6553497314452	-866.6923828125	1012.34228515625	184.6075439453123	-913.8878784179688	987.8567504882812	341.1684265136717	-767.5729370117188	435.9179992675781	232.3998870849608	-866.417724609375	441.8293762207031	220.1197357177733	-961.2367553710938	492.4384765625	231.772506713867	-683.3189697265625	69.61846923828126	202.3325958251952	-877.8339233398438	83.53767395019533	226.9039459228514	-724.4715576171875	52.03303527832032	154.3663635253905	-922.9116821289062	53.9673194885254	162.4147186279296	-367.7663879394531	1359.920776367188	155.9215698242186	-360.8807067871094	1315.762084960938	201.5932617187499	-1258.93212890625	1370.5546875	250.6532897949216	-1497.629638671875	1426.486328125	184.7694396972654	-123.1205215454102	1404.769653320312	124.1780853271483	-735.9905395507812	1642.339111328125	321.530334472656	-736.9623413085938	1579.24169921875	184.0143432617186	-865.6631469726562	1580.942138671875	168.8442077636717	-953.3101806640625	1447.892578125	235.3092803955076	-663.9541015625	1434.846801757812	223.686798095703	-808.28466796875	1385.930419921875	320.6073303222655	-36.11617660522462	1384.6767578125	104.8676376342773	-1591.538330078125	1467.000244140625	163.9667663574216	
